<?xml version="1.0" encoding="UTF-8" standalone="no"?>
<!DOCTYPE svg PUBLIC "-//W3C//DTD SVG 1.1//EN" "http://www.w3.org/Graphics/SVG/1.1/DTD/svg11.dtd">
<svg width="100%" height="100%" viewBox="0 0 800 800" version="1.1" xmlns="http://www.w3.org/2000/svg" xmlns:xlink="http://www.w3.org/1999/xlink" xml:space="preserve" xmlns:serif="http://www.serif.com/" style="fill-rule:evenodd;clip-rule:evenodd;stroke-linejoin:round;stroke-miterlimit:2;">
    <g transform="matrix(0.289958,0,0,0.185615,251.542,287.994)">
        <rect id="Artboard1" x="-867.512" y="-1551.57" width="2759.03" height="4310" style="fill:none;"/>
        <g id="Artboard11" serif:id="Artboard1">
            <g transform="matrix(2.45918,0,0,3.8416,-301.905,-1203.54)">
                <path d="M0,917.739C0,948.233 21.782,977.276 84.223,977.276C120.526,977.276 177.158,943.877 165.541,927.904C146.664,939.521 120.526,945.329 91.483,945.329C58.085,945.329 20.33,933.712 20.33,924.999C20.33,903.218 69.702,872.723 113.265,872.723C258.477,872.723 322.37,980.18 479.199,980.18C585.203,980.18 662.166,887.244 662.166,814.639C662.166,743.485 633.123,702.826 556.161,702.826C522.762,702.826 470.486,715.895 426.923,743.485C426.923,760.91 455.965,734.772 532.927,734.772C622.959,734.772 640.384,803.022 640.384,849.489C640.384,865.463 612.794,881.436 577.943,881.436C476.295,881.436 377.551,750.745 236.695,750.745L281.711,784.144C357.221,694.113 370.29,564.874 370.29,422.567C370.29,347.057 367.386,268.642 367.386,188.776C367.386,127.787 381.907,92.936 412.401,92.936C432.731,92.936 460.321,107.457 460.321,180.063C460.321,286.068 387.715,358.674 387.715,476.295C387.715,553.257 422.566,630.22 506.789,630.22C515.502,630.22 521.31,628.768 521.31,624.411C463.226,609.89 439.992,573.587 439.992,531.476C439.992,412.402 609.889,360.126 609.889,225.079C609.889,120.526 506.789,45.016 380.455,76.963C376.099,66.798 374.646,58.085 374.646,49.373C374.646,24.687 384.811,2.905 393.524,-11.616C405.141,-33.398 426.923,-45.015 451.609,-52.276C413.854,-62.441 381.907,-30.494 370.29,-8.712C339.796,46.468 357.221,75.511 299.136,110.361C241.052,145.212 212.009,172.803 194.584,206.201C184.419,203.297 171.35,207.653 171.35,220.722C181.515,220.722 182.967,232.339 182.967,242.504C164.089,242.504 145.212,246.861 145.212,264.286C159.733,264.286 174.254,275.903 174.254,287.52C159.733,287.52 129.238,303.493 129.238,325.275C149.568,312.206 175.706,326.727 175.706,344.152C158.281,344.152 126.334,351.413 126.334,387.716C146.664,370.291 174.254,376.099 175.706,402.237C153.924,402.237 129.238,409.498 129.238,442.896C152.472,428.375 181.515,425.471 181.515,451.609C155.377,451.609 139.403,469.035 139.403,495.173C153.924,480.652 190.227,480.652 191.68,512.598C169.898,512.598 152.472,522.763 152.472,547.449C174.254,540.188 197.488,540.188 207.653,564.874C187.323,564.874 172.802,582.3 168.446,589.56C188.775,589.56 209.105,599.725 219.27,637.48C194.584,637.48 182.967,644.741 177.158,657.81C180.063,665.07 232.339,673.783 232.339,715.895C232.339,740.581 217.818,752.197 198.94,752.197C169.898,752.197 152.472,720.251 171.35,692.661C126.334,699.921 119.074,746.389 137.951,771.075C108.909,818.995 0,843.681 0,917.739M243.956,695.565C239.599,624.411 191.68,476.295 191.68,345.605C191.68,281.711 203.296,222.175 238.147,178.611C249.764,164.09 274.45,143.76 280.259,145.212C267.19,158.281 255.573,171.35 246.86,184.419C222.174,222.175 209.105,270.094 209.105,318.014C209.105,441.444 267.19,576.491 243.956,695.565M252.668,736.224C322.37,659.262 336.891,559.066 336.891,454.513C336.891,338.344 315.11,127.787 338.343,117.622C333.987,178.611 349.96,328.179 349.96,464.678C349.96,606.986 332.535,736.224 252.668,736.224" style="fill-opacity:0.11;fill-rule:nonzero;"/>
            </g>
        </g>
    </g>
</svg>
