<?xml version="1.0" encoding="UTF-8" standalone="no"?>
<!DOCTYPE svg PUBLIC "-//W3C//DTD SVG 1.1//EN" "http://www.w3.org/Graphics/SVG/1.1/DTD/svg11.dtd">
<svg width="100%" height="100%" viewBox="0 0 800 800" version="1.1" xmlns="http://www.w3.org/2000/svg" xmlns:xlink="http://www.w3.org/1999/xlink" xml:space="preserve" xmlns:serif="http://www.serif.com/" style="fill-rule:evenodd;clip-rule:evenodd;stroke-linejoin:round;stroke-miterlimit:2;">
    <g transform="matrix(1,0,0,1,-1356.07,0)">
        <g transform="matrix(0.289958,0,0,0.185615,1607.61,287.994)">
            <rect id="Artboard1" x="-867.512" y="-1551.57" width="2759.03" height="4310" style="fill:none;"/>
            <g id="Artboard11" serif:id="Artboard1">
                <g transform="matrix(0.573186,0,0,0.895401,-987.424,-1583.96)">
                    <path d="M1094.75,3289.94C1094.75,2558.16 1653.67,2166.33 2143.46,2097.18C1745.87,1976.18 1521.14,1688.08 1521.14,1273.2C1521.14,702.756 1987.88,368.552 2604.42,368.552C3042.35,368.552 3370.79,552.939 3370.79,892.906C3370.79,1042.72 3261.3,1181.01 3082.68,1215.58C3042.35,858.331 2881.01,570.223 2610.19,570.223C2316.32,570.223 2137.7,841.044 2137.7,1232.87C2137.7,1757.22 2345.13,1993.47 2788.81,2039.56L2840.67,2212.43C2270.22,2206.66 1809.25,2569.68 1809.25,3272.66C1809.25,3946.82 2126.17,4315.6 2662.05,4315.6C3244.02,4315.6 3630.08,3871.91 3630.08,3232.32C3630.08,2915.41 3549.41,2546.63 3267.07,2546.63C3088.44,2546.63 2990.49,2702.21 2990.49,2915.41C2990.49,3088.27 3042.35,3255.37 3146.06,3359.09C3082.68,3399.42 3013.53,3410.95 2955.91,3410.95C2765.76,3410.95 2615.95,3289.94 2615.95,3019.12C2615.95,2633.06 2944.39,2414.1 3174.87,2229.71C3365.02,2068.38 3687.7,1860.94 3681.94,1567.07C3681.94,1405.73 3607.03,1319.3 3486.03,1278.96C3549.41,1175.25 3676.18,1129.15 3768.37,1129.15C3964.28,1129.15 4108.33,1267.44 4108.33,1503.69C4108.33,1762.99 3935.47,1941.61 3728.04,2091.42C3595.51,2189.38 3445.69,2270.05 3295.88,2391.05C3825.99,2350.72 4137.14,2713.73 4137.14,3232.32C4137.14,4062.06 3411.12,4517.27 2610.19,4517.27C1717.06,4517.27 1094.75,4154.26 1094.75,3289.94Z" style="fill-opacity:0.1;"/>
                </g>
            </g>
        </g>
    </g>
</svg>
