<?xml version="1.0" encoding="UTF-8" standalone="no"?>
<!DOCTYPE svg PUBLIC "-//W3C//DTD SVG 1.1//EN" "http://www.w3.org/Graphics/SVG/1.1/DTD/svg11.dtd">
<svg width="100%" height="100%" viewBox="0 0 800 800" version="1.1" xmlns="http://www.w3.org/2000/svg" xmlns:xlink="http://www.w3.org/1999/xlink" xml:space="preserve" xmlns:serif="http://www.serif.com/" style="fill-rule:evenodd;clip-rule:evenodd;stroke-linejoin:round;stroke-miterlimit:2;">
    <g transform="matrix(1,0,0,1,-1890.85,0)">
        <g transform="matrix(0.289958,0,0,0.185615,2142.39,287.994)">
            <rect id="Artboard1" x="-867.512" y="-1551.57" width="2759.03" height="4310" style="fill:none;"/>
            <g id="Artboard11" serif:id="Artboard1">
                <g transform="matrix(0.385984,0,0,0.602964,-741.618,-1814.78)">
                    <path d="M1464.14,5067.38C1308.5,4932.21 1172.09,4750.21 1035.9,4562.13L1020.04,4540.22L1177.07,4358.37L1203.07,4384.29C1451.88,4632.34 1694.28,4728.61 1992.85,4728.61C2201.35,4728.61 2397.77,4656.8 2541.89,4508.13C2687.36,4358.06 2778.99,4130.43 2778.99,3821.88C2778.99,3519.63 2696.49,3271.06 2526.18,3121.14C2414.05,3022.44 2264.02,2967.41 2076.16,2967.41C1872.88,2967.41 1694.4,3051.56 1558.89,3157.63L1538.72,3173.42L1347.01,3035.88L1655.96,1052.08L2934.93,1052.08C3047.09,1052.08 3125.37,1046.9 3182.09,1034.97C3256.73,1019.28 3289.4,991.535 3315.63,946.955L3325.55,930.113L3522.5,930.113L3429.56,1338.29L3429.43,1338.79C3402.34,1443.12 3346.53,1601.83 3251.73,1681.6L3242.19,1689.63L1868.3,1689.63C1868.3,1689.63 1699.06,2773.85 1699.06,2773.85C1869.6,2668.26 2089.47,2602.85 2345.32,2602.85C2714.5,2602.85 3015.77,2723.21 3225.08,2933.07C3434.43,3142.96 3552.29,3442.93 3552.29,3804.45C3552.29,4697.28 2902.42,5203.53 2127.43,5203.53C1897.89,5203.53 1668.43,5167.45 1471.68,5072.35L1467.58,5070.37L1464.14,5067.38Z" style="fill-opacity:0.1;"/>
                </g>
            </g>
        </g>
    </g>
</svg>
