<?xml version="1.0" encoding="UTF-8" standalone="no"?>
<!DOCTYPE svg PUBLIC "-//W3C//DTD SVG 1.1//EN" "http://www.w3.org/Graphics/SVG/1.1/DTD/svg11.dtd">
<svg width="100%" height="100%" viewBox="0 0 800 800" version="1.1" xmlns="http://www.w3.org/2000/svg" xmlns:xlink="http://www.w3.org/1999/xlink" xml:space="preserve" xmlns:serif="http://www.serif.com/" style="fill-rule:evenodd;clip-rule:evenodd;stroke-linejoin:round;stroke-miterlimit:2;">
    <g transform="matrix(1,0,0,1,-2810,0)">
        <g transform="matrix(0.289958,0,0,0.185615,3061.54,287.994)">
            <rect id="Artboard1" x="-867.512" y="-1551.57" width="2759.03" height="4310" style="fill:none;"/>
            <g id="Artboard11" serif:id="Artboard1">
                <g transform="matrix(0.634802,0,0,0.991654,-1910.05,439.15)">
                    <path d="M4892.68,1367.1C4717.89,1640.7 4520.28,1750.9 4315.08,1750.9C3771.68,1750.9 3555.08,1325.3 3555.08,941.496C3555.08,618.5 3684.28,417.1 3874.28,253.696C3756.48,52.296 3714.68,-141.504 3714.68,-339.104C3714.68,-745.704 3950.28,-969.904 4292.28,-969.904C4596.28,-969.904 4763.48,-749.504 4763.48,-407.504C4763.48,-92.104 4649.48,132.096 4516.48,257.496C4524.08,268.9 4535.48,280.296 4546.88,291.696C4668.48,424.696 4801.48,557.696 4942.08,686.9C4953.48,485.5 4934.48,173.896 4847.09,-190.904L5375.28,-54.104C5337.28,299.3 5223.28,622.3 5116.89,842.7C5230.89,949.1 5348.68,1047.9 5466.48,1139.1L5284.08,1769.9L4892.68,1367.1ZM4014.88,458.896C3999.68,515.9 3992.08,569.096 3992.08,626.1C3992.08,968.1 4292.28,1306.3 4508.89,1306.3C4592.48,1306.3 4676.09,1279.7 4744.48,1215.1L4144.08,599.496C4098.48,550.1 4052.88,504.5 4014.88,458.896ZM4383.48,86.496C4489.88,-35.104 4543.09,-206.104 4543.09,-407.504C4543.09,-646.904 4455.69,-787.504 4349.28,-787.504C4250.48,-787.504 4201.09,-631.704 4201.09,-472.104C4201.09,-282.104 4246.69,-107.304 4383.48,86.496Z" style="fill-opacity:0.1;"/>
                </g>
            </g>
        </g>
    </g>
</svg>
