<?xml version="1.0" encoding="UTF-8" standalone="no"?>
<!DOCTYPE svg PUBLIC "-//W3C//DTD SVG 1.1//EN" "http://www.w3.org/Graphics/SVG/1.1/DTD/svg11.dtd">
<svg width="100%" height="100%" viewBox="0 0 200 200" version="1.1" xmlns="http://www.w3.org/2000/svg" xmlns:xlink="http://www.w3.org/1999/xlink" xml:space="preserve" xmlns:serif="http://www.serif.com/" style="fill-rule:evenodd;clip-rule:evenodd;stroke-linejoin:round;stroke-miterlimit:2;">
    <g transform="matrix(1,0,0,1,0,-890)">
        <g transform="matrix(1,0,0,1,218.173,-0.976608)">
            <rect id="Artboard2" x="-218.173" y="890.977" width="200" height="200" style="fill:none;"/>
            <g id="Artboard21" serif:id="Artboard2">
                <g transform="matrix(0.841501,0,0,1.0536,-315.796,-153.113)">
                    <rect x="116.011" y="990.977" width="237.67" height="189.826" style="fill:none;"/>
                    <clipPath id="_clip1">
                        <rect x="116.011" y="990.977" width="237.67" height="189.826"/>
                    </clipPath>
                    <g clip-path="url(#_clip1)">
                        <g transform="matrix(1.61871,0,0,1.35134,-245.87,-577.235)">
                            <rect x="294.383" y="1090.25" width="146.827" height="140.473" style="fill:none;"/>
                            <clipPath id="_clip2">
                                <rect x="294.383" y="1090.25" width="146.827" height="140.473"/>
                            </clipPath>
                            <g clip-path="url(#_clip2)">
                                <g transform="matrix(0.00977143,0,0,0.00934854,276.5,1135.07)">
                                    <path d="M1464.14,5067.38C1308.5,4932.21 1172.09,4750.21 1035.9,4562.13L1020.04,4540.22L1177.07,4358.37L1203.07,4384.29C1451.88,4632.34 1694.28,4728.61 1992.85,4728.61C2201.35,4728.61 2397.77,4656.8 2541.89,4508.13C2687.36,4358.06 2778.99,4130.43 2778.99,3821.88C2778.99,3519.63 2696.49,3271.06 2526.18,3121.14C2414.05,3022.44 2264.02,2967.41 2076.16,2967.41C1872.88,2967.41 1694.4,3051.56 1558.89,3157.63L1538.72,3173.42L1347.01,3035.88L1655.96,1052.08L2934.93,1052.08C3047.09,1052.08 3125.37,1046.9 3182.09,1034.97C3256.73,1019.28 3289.4,991.535 3315.63,946.955L3325.55,930.113L3522.5,930.113L3429.56,1338.29L3429.43,1338.79C3402.34,1443.12 3346.53,1601.83 3251.73,1681.6L3242.19,1689.63L1868.3,1689.63C1868.3,1689.63 1699.06,2773.85 1699.06,2773.85C1869.6,2668.26 2089.47,2602.85 2345.32,2602.85C2714.5,2602.85 3015.77,2723.21 3225.08,2933.07C3434.43,3142.96 3552.29,3442.93 3552.29,3804.45C3552.29,4697.28 2902.42,5203.53 2127.43,5203.53C1897.89,5203.53 1668.43,5167.45 1471.68,5072.35L1467.58,5070.37L1464.14,5067.38Z" style="fill-opacity:0.1;"/>
                                </g>
                                <g transform="matrix(0.015241,0,0,0.0145814,263.88,1157.91)">
                                    <path d="M4892.68,1367.1C4717.89,1640.7 4520.28,1750.9 4315.08,1750.9C3771.68,1750.9 3555.08,1325.3 3555.08,941.496C3555.08,618.5 3684.28,417.1 3874.28,253.696C3756.48,52.296 3714.68,-141.504 3714.68,-339.104C3714.68,-745.704 3950.28,-969.904 4292.28,-969.904C4596.28,-969.904 4763.48,-749.504 4763.48,-407.504C4763.48,-92.104 4649.48,132.096 4516.48,257.496C4524.08,268.9 4535.48,280.296 4546.88,291.696C4668.48,424.696 4801.48,557.696 4942.08,686.9C4953.48,485.5 4934.48,173.896 4847.09,-190.904L5375.28,-54.104C5337.28,299.3 5223.28,622.3 5116.89,842.7C5230.89,949.1 5348.68,1047.9 5466.48,1139.1L5284.08,1769.9L4892.68,1367.1ZM4014.88,458.896C3999.68,515.9 3992.08,569.096 3992.08,626.1C3992.08,968.1 4292.28,1306.3 4508.89,1306.3C4592.48,1306.3 4676.09,1279.7 4744.48,1215.1L4144.08,599.496C4098.48,550.1 4052.88,504.5 4014.88,458.896ZM4383.48,86.496C4489.88,-35.104 4543.09,-206.104 4543.09,-407.504C4543.09,-646.904 4455.69,-787.504 4349.28,-787.504C4250.48,-787.504 4201.09,-631.704 4201.09,-472.104C4201.09,-282.104 4246.69,-107.304 4383.48,86.496Z" style="fill-opacity:0.1;"/>
                                </g>
                                <g transform="matrix(0.015241,0,0,0.0145814,230.09,1204.92)">
                                    <path d="M4892.68,1367.1C4717.89,1640.7 4520.28,1750.9 4315.08,1750.9C3771.68,1750.9 3555.08,1325.3 3555.08,941.496C3555.08,618.5 3684.28,417.1 3874.28,253.696C3756.48,52.296 3714.68,-141.504 3714.68,-339.104C3714.68,-745.704 3950.28,-969.904 4292.28,-969.904C4596.28,-969.904 4763.48,-749.504 4763.48,-407.504C4763.48,-92.104 4649.48,132.096 4516.48,257.496C4524.08,268.9 4535.48,280.296 4546.88,291.696C4668.48,424.696 4801.48,557.696 4942.08,686.9C4953.48,485.5 4934.48,173.896 4847.09,-190.904L5375.28,-54.104C5337.28,299.3 5223.28,622.3 5116.89,842.7C5230.89,949.1 5348.68,1047.9 5466.48,1139.1L5284.08,1769.9L4892.68,1367.1ZM4014.88,458.896C3999.68,515.9 3992.08,569.096 3992.08,626.1C3992.08,968.1 4292.28,1306.3 4508.89,1306.3C4592.48,1306.3 4676.09,1279.7 4744.48,1215.1L4144.08,599.496C4098.48,550.1 4052.88,504.5 4014.88,458.896ZM4383.48,86.496C4489.88,-35.104 4543.09,-206.104 4543.09,-407.504C4543.09,-646.904 4455.69,-787.504 4349.28,-787.504C4250.48,-787.504 4201.09,-631.704 4201.09,-472.104C4201.09,-282.104 4246.69,-107.304 4383.48,86.496Z" style="fill-opacity:0.1;"/>
                                </g>
                                <g transform="matrix(0.0469429,0,0,0.0449113,352.254,1139.7)">
                                    <path d="M0,917.739C0,948.233 21.782,977.276 84.223,977.276C120.526,977.276 177.158,943.877 165.541,927.904C146.664,939.521 120.526,945.329 91.483,945.329C58.085,945.329 20.33,933.712 20.33,924.999C20.33,903.218 69.702,872.723 113.265,872.723C258.477,872.723 322.37,980.18 479.199,980.18C585.203,980.18 662.166,887.244 662.166,814.639C662.166,743.485 633.123,702.826 556.161,702.826C522.762,702.826 470.486,715.895 426.923,743.485C426.923,760.91 455.965,734.772 532.927,734.772C622.959,734.772 640.384,803.022 640.384,849.489C640.384,865.463 612.794,881.436 577.943,881.436C476.295,881.436 377.551,750.745 236.695,750.745L281.711,784.144C357.221,694.113 370.29,564.874 370.29,422.567C370.29,347.057 367.386,268.642 367.386,188.776C367.386,127.787 381.907,92.936 412.401,92.936C432.731,92.936 460.321,107.457 460.321,180.063C460.321,286.068 387.715,358.674 387.715,476.295C387.715,553.257 422.566,630.22 506.789,630.22C515.502,630.22 521.31,628.768 521.31,624.411C463.226,609.89 439.992,573.587 439.992,531.476C439.992,412.402 609.889,360.126 609.889,225.079C609.889,120.526 506.789,45.016 380.455,76.963C376.099,66.798 374.646,58.085 374.646,49.373C374.646,24.687 384.811,2.905 393.524,-11.616C405.141,-33.398 426.923,-45.015 451.609,-52.276C413.854,-62.441 381.907,-30.494 370.29,-8.712C339.796,46.468 357.221,75.511 299.136,110.361C241.052,145.212 212.009,172.803 194.584,206.201C184.419,203.297 171.35,207.653 171.35,220.722C181.515,220.722 182.967,232.339 182.967,242.504C164.089,242.504 145.212,246.861 145.212,264.286C159.733,264.286 174.254,275.903 174.254,287.52C159.733,287.52 129.238,303.493 129.238,325.275C149.568,312.206 175.706,326.727 175.706,344.152C158.281,344.152 126.334,351.413 126.334,387.716C146.664,370.291 174.254,376.099 175.706,402.237C153.924,402.237 129.238,409.498 129.238,442.896C152.472,428.375 181.515,425.471 181.515,451.609C155.377,451.609 139.403,469.035 139.403,495.173C153.924,480.652 190.227,480.652 191.68,512.598C169.898,512.598 152.472,522.763 152.472,547.449C174.254,540.188 197.488,540.188 207.653,564.874C187.323,564.874 172.802,582.3 168.446,589.56C188.775,589.56 209.105,599.725 219.27,637.48C194.584,637.48 182.967,644.741 177.158,657.81C180.063,665.07 232.339,673.783 232.339,715.895C232.339,740.581 217.818,752.197 198.94,752.197C169.898,752.197 152.472,720.251 171.35,692.661C126.334,699.921 119.074,746.389 137.951,771.075C108.909,818.995 0,843.681 0,917.739M243.956,695.565C239.599,624.411 191.68,476.295 191.68,345.605C191.68,281.711 203.296,222.175 238.147,178.611C249.764,164.09 274.45,143.76 280.259,145.212C267.19,158.281 255.573,171.35 246.86,184.419C222.174,222.175 209.105,270.094 209.105,318.014C209.105,441.444 267.19,576.491 243.956,695.565M252.668,736.224C322.37,659.262 336.891,559.066 336.891,454.513C336.891,338.344 315.11,127.787 338.343,117.622C333.987,178.611 349.96,328.179 349.96,464.678C349.96,606.986 332.535,736.224 252.668,736.224" style="fill-opacity:0.1;fill-rule:nonzero;"/>
                                </g>
                                <g transform="matrix(0.0469429,0,0,0.0449113,316.111,1186.7)">
                                    <path d="M0,917.739C0,948.233 21.782,977.276 84.223,977.276C120.526,977.276 177.158,943.877 165.541,927.904C146.664,939.521 120.526,945.329 91.483,945.329C58.085,945.329 20.33,933.712 20.33,924.999C20.33,903.218 69.702,872.723 113.265,872.723C258.477,872.723 322.37,980.18 479.199,980.18C585.203,980.18 662.166,887.244 662.166,814.639C662.166,743.485 633.123,702.826 556.161,702.826C522.762,702.826 470.486,715.895 426.923,743.485C426.923,760.91 455.965,734.772 532.927,734.772C622.959,734.772 640.384,803.022 640.384,849.489C640.384,865.463 612.794,881.436 577.943,881.436C476.295,881.436 377.551,750.745 236.695,750.745L281.711,784.144C357.221,694.113 370.29,564.874 370.29,422.567C370.29,347.057 367.386,268.642 367.386,188.776C367.386,127.787 381.907,92.936 412.401,92.936C432.731,92.936 460.321,107.457 460.321,180.063C460.321,286.068 387.715,358.674 387.715,476.295C387.715,553.257 422.566,630.22 506.789,630.22C515.502,630.22 521.31,628.768 521.31,624.411C463.226,609.89 439.992,573.587 439.992,531.476C439.992,412.402 609.889,360.126 609.889,225.079C609.889,120.526 506.789,45.016 380.455,76.963C376.099,66.798 374.646,58.085 374.646,49.373C374.646,24.687 384.811,2.905 393.524,-11.616C405.141,-33.398 426.923,-45.015 451.609,-52.276C413.854,-62.441 381.907,-30.494 370.29,-8.712C339.796,46.468 357.221,75.511 299.136,110.361C241.052,145.212 212.009,172.803 194.584,206.201C184.419,203.297 171.35,207.653 171.35,220.722C181.515,220.722 182.967,232.339 182.967,242.504C164.089,242.504 145.212,246.861 145.212,264.286C159.733,264.286 174.254,275.903 174.254,287.52C159.733,287.52 129.238,303.493 129.238,325.275C149.568,312.206 175.706,326.727 175.706,344.152C158.281,344.152 126.334,351.413 126.334,387.716C146.664,370.291 174.254,376.099 175.706,402.237C153.924,402.237 129.238,409.498 129.238,442.896C152.472,428.375 181.515,425.471 181.515,451.609C155.377,451.609 139.403,469.035 139.403,495.173C153.924,480.652 190.227,480.652 191.68,512.598C169.898,512.598 152.472,522.763 152.472,547.449C174.254,540.188 197.488,540.188 207.653,564.874C187.323,564.874 172.802,582.3 168.446,589.56C188.775,589.56 209.105,599.725 219.27,637.48C194.584,637.48 182.967,644.741 177.158,657.81C180.063,665.07 232.339,673.783 232.339,715.895C232.339,740.581 217.818,752.197 198.94,752.197C169.898,752.197 152.472,720.251 171.35,692.661C126.334,699.921 119.074,746.389 137.951,771.075C108.909,818.995 0,843.681 0,917.739M243.956,695.565C239.599,624.411 191.68,476.295 191.68,345.605C191.68,281.711 203.296,222.175 238.147,178.611C249.764,164.09 274.45,143.76 280.259,145.212C267.19,158.281 255.573,171.35 246.86,184.419C222.174,222.175 209.105,270.094 209.105,318.014C209.105,441.444 267.19,576.491 243.956,695.565M252.668,736.224C322.37,659.262 336.891,559.066 336.891,454.513C336.891,338.344 315.11,127.787 338.343,117.622C333.987,178.611 349.96,328.179 349.96,464.678C349.96,606.986 332.535,736.224 252.668,736.224" style="fill-opacity:0.1;fill-rule:nonzero;"/>
                                </g>
                                <g transform="matrix(0.0100651,0,0,0.00962953,344.441,1187.23)">
                                    <path d="M1094.75,3289.94C1094.75,2558.16 1653.67,2166.33 2143.46,2097.18C1745.87,1976.18 1521.14,1688.08 1521.14,1273.2C1521.14,702.756 1987.88,368.552 2604.42,368.552C3042.35,368.552 3370.79,552.939 3370.79,892.906C3370.79,1042.72 3261.3,1181.01 3082.68,1215.58C3042.35,858.331 2881.01,570.223 2610.19,570.223C2316.32,570.223 2137.7,841.044 2137.7,1232.87C2137.7,1757.22 2345.13,1993.47 2788.81,2039.56L2840.67,2212.43C2270.22,2206.66 1809.25,2569.68 1809.25,3272.66C1809.25,3946.82 2126.17,4315.6 2662.05,4315.6C3244.02,4315.6 3630.08,3871.91 3630.08,3232.32C3630.08,2915.41 3549.41,2546.63 3267.07,2546.63C3088.44,2546.63 2990.49,2702.21 2990.49,2915.41C2990.49,3088.27 3042.35,3255.37 3146.06,3359.09C3082.68,3399.42 3013.53,3410.95 2955.91,3410.95C2765.76,3410.95 2615.95,3289.94 2615.95,3019.12C2615.95,2633.06 2944.39,2414.1 3174.87,2229.71C3365.02,2068.38 3687.7,1860.94 3681.94,1567.07C3681.94,1405.73 3607.03,1319.3 3486.03,1278.96C3549.41,1175.25 3676.18,1129.15 3768.37,1129.15C3964.28,1129.15 4108.33,1267.44 4108.33,1503.69C4108.33,1762.99 3935.47,1941.61 3728.04,2091.42C3595.51,2189.38 3445.69,2270.05 3295.88,2391.05C3825.99,2350.72 4137.14,2713.73 4137.14,3232.32C4137.14,4062.06 3411.12,4517.27 2610.19,4517.27C1717.06,4517.27 1094.75,4154.26 1094.75,3289.94Z" style="fill-opacity:0.1;"/>
                                </g>
                            </g>
                        </g>
                        <g transform="matrix(1.61871,0,0,1.35134,-483.541,-577.235)">
                            <rect x="294.383" y="1090.25" width="146.827" height="140.473" style="fill:none;"/>
                            <clipPath id="_clip3">
                                <rect x="294.383" y="1090.25" width="146.827" height="140.473"/>
                            </clipPath>
                            <g clip-path="url(#_clip3)">
                                <g transform="matrix(0.00977143,0,0,0.00934854,422.988,1135.07)">
                                    <path d="M1464.14,5067.38C1308.5,4932.21 1172.09,4750.21 1035.9,4562.13L1020.04,4540.22L1177.07,4358.37L1203.07,4384.29C1451.88,4632.34 1694.28,4728.61 1992.85,4728.61C2201.35,4728.61 2397.77,4656.8 2541.89,4508.13C2687.36,4358.06 2778.99,4130.43 2778.99,3821.88C2778.99,3519.63 2696.49,3271.06 2526.18,3121.14C2414.05,3022.44 2264.02,2967.41 2076.16,2967.41C1872.88,2967.41 1694.4,3051.56 1558.89,3157.63L1538.72,3173.42L1347.01,3035.88L1655.96,1052.08L2934.93,1052.08C3047.09,1052.08 3125.37,1046.9 3182.09,1034.97C3256.73,1019.28 3289.4,991.535 3315.63,946.955L3325.55,930.113L3522.5,930.113L3429.56,1338.29L3429.43,1338.79C3402.34,1443.12 3346.53,1601.83 3251.73,1681.6L3242.19,1689.63L1868.3,1689.63C1868.3,1689.63 1699.06,2773.85 1699.06,2773.85C1869.6,2668.26 2089.47,2602.85 2345.32,2602.85C2714.5,2602.85 3015.77,2723.21 3225.08,2933.07C3434.43,3142.96 3552.29,3442.93 3552.29,3804.45C3552.29,4697.28 2902.42,5203.53 2127.43,5203.53C1897.89,5203.53 1668.43,5167.45 1471.68,5072.35L1467.58,5070.37L1464.14,5067.38Z" style="fill-opacity:0.1;"/>
                                </g>
                                <g transform="matrix(0.00977143,0,0,0.00934854,384.771,1182.08)">
                                    <path d="M1464.14,5067.38C1308.5,4932.21 1172.09,4750.21 1035.9,4562.13L1020.04,4540.22L1177.07,4358.37L1203.07,4384.29C1451.88,4632.34 1694.28,4728.61 1992.85,4728.61C2201.35,4728.61 2397.77,4656.8 2541.89,4508.13C2687.36,4358.06 2778.99,4130.43 2778.99,3821.88C2778.99,3519.63 2696.49,3271.06 2526.18,3121.14C2414.05,3022.44 2264.02,2967.41 2076.16,2967.41C1872.88,2967.41 1694.4,3051.56 1558.89,3157.63L1538.72,3173.42L1347.01,3035.88L1655.96,1052.08L2934.93,1052.08C3047.09,1052.08 3125.37,1046.9 3182.09,1034.97C3256.73,1019.28 3289.4,991.535 3315.63,946.955L3325.55,930.113L3522.5,930.113L3429.56,1338.29L3429.43,1338.79C3402.34,1443.12 3346.53,1601.83 3251.73,1681.6L3242.19,1689.63L1868.3,1689.63C1868.3,1689.63 1699.06,2773.85 1699.06,2773.85C1869.6,2668.26 2089.47,2602.85 2345.32,2602.85C2714.5,2602.85 3015.77,2723.21 3225.08,2933.07C3434.43,3142.96 3552.29,3442.93 3552.29,3804.45C3552.29,4697.28 2902.42,5203.53 2127.43,5203.53C1897.89,5203.53 1668.43,5167.45 1471.68,5072.35L1467.58,5070.37L1464.14,5067.38Z" style="fill-opacity:0.1;"/>
                                </g>
                                <g transform="matrix(0.015241,0,0,0.0145814,376.863,1204.92)">
                                    <path d="M4892.68,1367.1C4717.89,1640.7 4520.28,1750.9 4315.08,1750.9C3771.68,1750.9 3555.08,1325.3 3555.08,941.496C3555.08,618.5 3684.28,417.1 3874.28,253.696C3756.48,52.296 3714.68,-141.504 3714.68,-339.104C3714.68,-745.704 3950.28,-969.904 4292.28,-969.904C4596.28,-969.904 4763.48,-749.504 4763.48,-407.504C4763.48,-92.104 4649.48,132.096 4516.48,257.496C4524.08,268.9 4535.48,280.296 4546.88,291.696C4668.48,424.696 4801.48,557.696 4942.08,686.9C4953.48,485.5 4934.48,173.896 4847.09,-190.904L5375.28,-54.104C5337.28,299.3 5223.28,622.3 5116.89,842.7C5230.89,949.1 5348.68,1047.9 5466.48,1139.1L5284.08,1769.9L4892.68,1367.1ZM4014.88,458.896C3999.68,515.9 3992.08,569.096 3992.08,626.1C3992.08,968.1 4292.28,1306.3 4508.89,1306.3C4592.48,1306.3 4676.09,1279.7 4744.48,1215.1L4144.08,599.496C4098.48,550.1 4052.88,504.5 4014.88,458.896ZM4383.48,86.496C4489.88,-35.104 4543.09,-206.104 4543.09,-407.504C4543.09,-646.904 4455.69,-787.504 4349.28,-787.504C4250.48,-787.504 4201.09,-631.704 4201.09,-472.104C4201.09,-282.104 4246.69,-107.304 4383.48,86.496Z" style="fill-opacity:0.1;"/>
                                </g>
                                <g transform="matrix(0.0469429,0,0,0.0449113,352.254,1139.7)">
                                    <path d="M0,917.739C0,948.233 21.782,977.276 84.223,977.276C120.526,977.276 177.158,943.877 165.541,927.904C146.664,939.521 120.526,945.329 91.483,945.329C58.085,945.329 20.33,933.712 20.33,924.999C20.33,903.218 69.702,872.723 113.265,872.723C258.477,872.723 322.37,980.18 479.199,980.18C585.203,980.18 662.166,887.244 662.166,814.639C662.166,743.485 633.123,702.826 556.161,702.826C522.762,702.826 470.486,715.895 426.923,743.485C426.923,760.91 455.965,734.772 532.927,734.772C622.959,734.772 640.384,803.022 640.384,849.489C640.384,865.463 612.794,881.436 577.943,881.436C476.295,881.436 377.551,750.745 236.695,750.745L281.711,784.144C357.221,694.113 370.29,564.874 370.29,422.567C370.29,347.057 367.386,268.642 367.386,188.776C367.386,127.787 381.907,92.936 412.401,92.936C432.731,92.936 460.321,107.457 460.321,180.063C460.321,286.068 387.715,358.674 387.715,476.295C387.715,553.257 422.566,630.22 506.789,630.22C515.502,630.22 521.31,628.768 521.31,624.411C463.226,609.89 439.992,573.587 439.992,531.476C439.992,412.402 609.889,360.126 609.889,225.079C609.889,120.526 506.789,45.016 380.455,76.963C376.099,66.798 374.646,58.085 374.646,49.373C374.646,24.687 384.811,2.905 393.524,-11.616C405.141,-33.398 426.923,-45.015 451.609,-52.276C413.854,-62.441 381.907,-30.494 370.29,-8.712C339.796,46.468 357.221,75.511 299.136,110.361C241.052,145.212 212.009,172.803 194.584,206.201C184.419,203.297 171.35,207.653 171.35,220.722C181.515,220.722 182.967,232.339 182.967,242.504C164.089,242.504 145.212,246.861 145.212,264.286C159.733,264.286 174.254,275.903 174.254,287.52C159.733,287.52 129.238,303.493 129.238,325.275C149.568,312.206 175.706,326.727 175.706,344.152C158.281,344.152 126.334,351.413 126.334,387.716C146.664,370.291 174.254,376.099 175.706,402.237C153.924,402.237 129.238,409.498 129.238,442.896C152.472,428.375 181.515,425.471 181.515,451.609C155.377,451.609 139.403,469.035 139.403,495.173C153.924,480.652 190.227,480.652 191.68,512.598C169.898,512.598 152.472,522.763 152.472,547.449C174.254,540.188 197.488,540.188 207.653,564.874C187.323,564.874 172.802,582.3 168.446,589.56C188.775,589.56 209.105,599.725 219.27,637.48C194.584,637.48 182.967,644.741 177.158,657.81C180.063,665.07 232.339,673.783 232.339,715.895C232.339,740.581 217.818,752.197 198.94,752.197C169.898,752.197 152.472,720.251 171.35,692.661C126.334,699.921 119.074,746.389 137.951,771.075C108.909,818.995 0,843.681 0,917.739M243.956,695.565C239.599,624.411 191.68,476.295 191.68,345.605C191.68,281.711 203.296,222.175 238.147,178.611C249.764,164.09 274.45,143.76 280.259,145.212C267.19,158.281 255.573,171.35 246.86,184.419C222.174,222.175 209.105,270.094 209.105,318.014C209.105,441.444 267.19,576.491 243.956,695.565M252.668,736.224C322.37,659.262 336.891,559.066 336.891,454.513C336.891,338.344 315.11,127.787 338.343,117.622C333.987,178.611 349.96,328.179 349.96,464.678C349.96,606.986 332.535,736.224 252.668,736.224" style="fill-opacity:0.1;fill-rule:nonzero;"/>
                                </g>
                                <g transform="matrix(0.0100651,0,0,0.00962953,380.999,1140.77)">
                                    <path d="M1094.75,3289.94C1094.75,2558.16 1653.67,2166.33 2143.46,2097.18C1745.87,1976.18 1521.14,1688.08 1521.14,1273.2C1521.14,702.756 1987.88,368.552 2604.42,368.552C3042.35,368.552 3370.79,552.939 3370.79,892.906C3370.79,1042.72 3261.3,1181.01 3082.68,1215.58C3042.35,858.331 2881.01,570.223 2610.19,570.223C2316.32,570.223 2137.7,841.044 2137.7,1232.87C2137.7,1757.22 2345.13,1993.47 2788.81,2039.56L2840.67,2212.43C2270.22,2206.66 1809.25,2569.68 1809.25,3272.66C1809.25,3946.82 2126.17,4315.6 2662.05,4315.6C3244.02,4315.6 3630.08,3871.91 3630.08,3232.32C3630.08,2915.41 3549.41,2546.63 3267.07,2546.63C3088.44,2546.63 2990.49,2702.21 2990.49,2915.41C2990.49,3088.27 3042.35,3255.37 3146.06,3359.09C3082.68,3399.42 3013.53,3410.95 2955.91,3410.95C2765.76,3410.95 2615.95,3289.94 2615.95,3019.12C2615.95,2633.06 2944.39,2414.1 3174.87,2229.71C3365.02,2068.38 3687.7,1860.94 3681.94,1567.07C3681.94,1405.73 3607.03,1319.3 3486.03,1278.96C3549.41,1175.25 3676.18,1129.15 3768.37,1129.15C3964.28,1129.15 4108.33,1267.44 4108.33,1503.69C4108.33,1762.99 3935.47,1941.61 3728.04,2091.42C3595.51,2189.38 3445.69,2270.05 3295.88,2391.05C3825.99,2350.72 4137.14,2713.73 4137.14,3232.32C4137.14,4062.06 3411.12,4517.27 2610.19,4517.27C1717.06,4517.27 1094.75,4154.26 1094.75,3289.94Z" style="fill-opacity:0.1;"/>
                                </g>
                                <g transform="matrix(0.0100651,0,0,0.00962953,344.441,1187.23)">
                                    <path d="M1094.75,3289.94C1094.75,2558.16 1653.67,2166.33 2143.46,2097.18C1745.87,1976.18 1521.14,1688.08 1521.14,1273.2C1521.14,702.756 1987.88,368.552 2604.42,368.552C3042.35,368.552 3370.79,552.939 3370.79,892.906C3370.79,1042.72 3261.3,1181.01 3082.68,1215.58C3042.35,858.331 2881.01,570.223 2610.19,570.223C2316.32,570.223 2137.7,841.044 2137.7,1232.87C2137.7,1757.22 2345.13,1993.47 2788.81,2039.56L2840.67,2212.43C2270.22,2206.66 1809.25,2569.68 1809.25,3272.66C1809.25,3946.82 2126.17,4315.6 2662.05,4315.6C3244.02,4315.6 3630.08,3871.91 3630.08,3232.32C3630.08,2915.41 3549.41,2546.63 3267.07,2546.63C3088.44,2546.63 2990.49,2702.21 2990.49,2915.41C2990.49,3088.27 3042.35,3255.37 3146.06,3359.09C3082.68,3399.42 3013.53,3410.95 2955.91,3410.95C2765.76,3410.95 2615.95,3289.94 2615.95,3019.12C2615.95,2633.06 2944.39,2414.1 3174.87,2229.71C3365.02,2068.38 3687.7,1860.94 3681.94,1567.07C3681.94,1405.73 3607.03,1319.3 3486.03,1278.96C3549.41,1175.25 3676.18,1129.15 3768.37,1129.15C3964.28,1129.15 4108.33,1267.44 4108.33,1503.69C4108.33,1762.99 3935.47,1941.61 3728.04,2091.42C3595.51,2189.38 3445.69,2270.05 3295.88,2391.05C3825.99,2350.72 4137.14,2713.73 4137.14,3232.32C4137.14,4062.06 3411.12,4517.27 2610.19,4517.27C1717.06,4517.27 1094.75,4154.26 1094.75,3289.94Z" style="fill-opacity:0.1;"/>
                                </g>
                            </g>
                        </g>
                        <g transform="matrix(1.61871,0,0,1.35134,-483.541,-386.482)">
                            <rect x="294.383" y="1090.25" width="146.827" height="140.473" style="fill:none;"/>
                            <clipPath id="_clip4">
                                <rect x="294.383" y="1090.25" width="146.827" height="140.473"/>
                            </clipPath>
                            <g clip-path="url(#_clip4)">
                                <g transform="matrix(0.0469429,0,0,0.0449113,431.548,1092.69)">
                                    <path d="M0,917.739C0,948.233 21.782,977.276 84.223,977.276C120.526,977.276 177.158,943.877 165.541,927.904C146.664,939.521 120.526,945.329 91.483,945.329C58.085,945.329 20.33,933.712 20.33,924.999C20.33,903.218 69.702,872.723 113.265,872.723C258.477,872.723 322.37,980.18 479.199,980.18C585.203,980.18 662.166,887.244 662.166,814.639C662.166,743.485 633.123,702.826 556.161,702.826C522.762,702.826 470.486,715.895 426.923,743.485C426.923,760.91 455.965,734.772 532.927,734.772C622.959,734.772 640.384,803.022 640.384,849.489C640.384,865.463 612.794,881.436 577.943,881.436C476.295,881.436 377.551,750.745 236.695,750.745L281.711,784.144C357.221,694.113 370.29,564.874 370.29,422.567C370.29,347.057 367.386,268.642 367.386,188.776C367.386,127.787 381.907,92.936 412.401,92.936C432.731,92.936 460.321,107.457 460.321,180.063C460.321,286.068 387.715,358.674 387.715,476.295C387.715,553.257 422.566,630.22 506.789,630.22C515.502,630.22 521.31,628.768 521.31,624.411C463.226,609.89 439.992,573.587 439.992,531.476C439.992,412.402 609.889,360.126 609.889,225.079C609.889,120.526 506.789,45.016 380.455,76.963C376.099,66.798 374.646,58.085 374.646,49.373C374.646,24.687 384.811,2.905 393.524,-11.616C405.141,-33.398 426.923,-45.015 451.609,-52.276C413.854,-62.441 381.907,-30.494 370.29,-8.712C339.796,46.468 357.221,75.511 299.136,110.361C241.052,145.212 212.009,172.803 194.584,206.201C184.419,203.297 171.35,207.653 171.35,220.722C181.515,220.722 182.967,232.339 182.967,242.504C164.089,242.504 145.212,246.861 145.212,264.286C159.733,264.286 174.254,275.903 174.254,287.52C159.733,287.52 129.238,303.493 129.238,325.275C149.568,312.206 175.706,326.727 175.706,344.152C158.281,344.152 126.334,351.413 126.334,387.716C146.664,370.291 174.254,376.099 175.706,402.237C153.924,402.237 129.238,409.498 129.238,442.896C152.472,428.375 181.515,425.471 181.515,451.609C155.377,451.609 139.403,469.035 139.403,495.173C153.924,480.652 190.227,480.652 191.68,512.598C169.898,512.598 152.472,522.763 152.472,547.449C174.254,540.188 197.488,540.188 207.653,564.874C187.323,564.874 172.802,582.3 168.446,589.56C188.775,589.56 209.105,599.725 219.27,637.48C194.584,637.48 182.967,644.741 177.158,657.81C180.063,665.07 232.339,673.783 232.339,715.895C232.339,740.581 217.818,752.197 198.94,752.197C169.898,752.197 152.472,720.251 171.35,692.661C126.334,699.921 119.074,746.389 137.951,771.075C108.909,818.995 0,843.681 0,917.739M243.956,695.565C239.599,624.411 191.68,476.295 191.68,345.605C191.68,281.711 203.296,222.175 238.147,178.611C249.764,164.09 274.45,143.76 280.259,145.212C267.19,158.281 255.573,171.35 246.86,184.419C222.174,222.175 209.105,270.094 209.105,318.014C209.105,441.444 267.19,576.491 243.956,695.565M252.668,736.224C322.37,659.262 336.891,559.066 336.891,454.513C336.891,338.344 315.11,127.787 338.343,117.622C333.987,178.611 349.96,328.179 349.96,464.678C349.96,606.986 332.535,736.224 252.668,736.224" style="fill-opacity:0.1;fill-rule:nonzero;"/>
                                </g>
                                <g transform="matrix(0.00977143,0,0,0.00934854,350.092,1088.06)">
                                    <path d="M1464.14,5067.38C1308.5,4932.21 1172.09,4750.21 1035.9,4562.13L1020.04,4540.22L1177.07,4358.37L1203.07,4384.29C1451.88,4632.34 1694.28,4728.61 1992.85,4728.61C2201.35,4728.61 2397.77,4656.8 2541.89,4508.13C2687.36,4358.06 2778.99,4130.43 2778.99,3821.88C2778.99,3519.63 2696.49,3271.06 2526.18,3121.14C2414.05,3022.44 2264.02,2967.41 2076.16,2967.41C1872.88,2967.41 1694.4,3051.56 1558.89,3157.63L1538.72,3173.42L1347.01,3035.88L1655.96,1052.08L2934.93,1052.08C3047.09,1052.08 3125.37,1046.9 3182.09,1034.97C3256.73,1019.28 3289.4,991.535 3315.63,946.955L3325.55,930.113L3522.5,930.113L3429.56,1338.29L3429.43,1338.79C3402.34,1443.12 3346.53,1601.83 3251.73,1681.6L3242.19,1689.63L1868.3,1689.63C1868.3,1689.63 1699.06,2773.85 1699.06,2773.85C1869.6,2668.26 2089.47,2602.85 2345.32,2602.85C2714.5,2602.85 3015.77,2723.21 3225.08,2933.07C3434.43,3142.96 3552.29,3442.93 3552.29,3804.45C3552.29,4697.28 2902.42,5203.53 2127.43,5203.53C1897.89,5203.53 1668.43,5167.45 1471.68,5072.35L1467.58,5070.37L1464.14,5067.38Z" style="fill-opacity:0.1;"/>
                                </g>
                                <g transform="matrix(0.00977143,0,0,0.00934854,422.988,1135.07)">
                                    <path d="M1464.14,5067.38C1308.5,4932.21 1172.09,4750.21 1035.9,4562.13L1020.04,4540.22L1177.07,4358.37L1203.07,4384.29C1451.88,4632.34 1694.28,4728.61 1992.85,4728.61C2201.35,4728.61 2397.77,4656.8 2541.89,4508.13C2687.36,4358.06 2778.99,4130.43 2778.99,3821.88C2778.99,3519.63 2696.49,3271.06 2526.18,3121.14C2414.05,3022.44 2264.02,2967.41 2076.16,2967.41C1872.88,2967.41 1694.4,3051.56 1558.89,3157.63L1538.72,3173.42L1347.01,3035.88L1655.96,1052.08L2934.93,1052.08C3047.09,1052.08 3125.37,1046.9 3182.09,1034.97C3256.73,1019.28 3289.4,991.535 3315.63,946.955L3325.55,930.113L3522.5,930.113L3429.56,1338.29L3429.43,1338.79C3402.34,1443.12 3346.53,1601.83 3251.73,1681.6L3242.19,1689.63L1868.3,1689.63C1868.3,1689.63 1699.06,2773.85 1699.06,2773.85C1869.6,2668.26 2089.47,2602.85 2345.32,2602.85C2714.5,2602.85 3015.77,2723.21 3225.08,2933.07C3434.43,3142.96 3552.29,3442.93 3552.29,3804.45C3552.29,4697.28 2902.42,5203.53 2127.43,5203.53C1897.89,5203.53 1668.43,5167.45 1471.68,5072.35L1467.58,5070.37L1464.14,5067.38Z" style="fill-opacity:0.1;"/>
                                </g>
                                <g transform="matrix(0.015241,0,0,0.0145814,342.538,1110.9)">
                                    <path d="M4892.68,1367.1C4717.89,1640.7 4520.28,1750.9 4315.08,1750.9C3771.68,1750.9 3555.08,1325.3 3555.08,941.496C3555.08,618.5 3684.28,417.1 3874.28,253.696C3756.48,52.296 3714.68,-141.504 3714.68,-339.104C3714.68,-745.704 3950.28,-969.904 4292.28,-969.904C4596.28,-969.904 4763.48,-749.504 4763.48,-407.504C4763.48,-92.104 4649.48,132.096 4516.48,257.496C4524.08,268.9 4535.48,280.296 4546.88,291.696C4668.48,424.696 4801.48,557.696 4942.08,686.9C4953.48,485.5 4934.48,173.896 4847.09,-190.904L5375.28,-54.104C5337.28,299.3 5223.28,622.3 5116.89,842.7C5230.89,949.1 5348.68,1047.9 5466.48,1139.1L5284.08,1769.9L4892.68,1367.1ZM4014.88,458.896C3999.68,515.9 3992.08,569.096 3992.08,626.1C3992.08,968.1 4292.28,1306.3 4508.89,1306.3C4592.48,1306.3 4676.09,1279.7 4744.48,1215.1L4144.08,599.496C4098.48,550.1 4052.88,504.5 4014.88,458.896ZM4383.48,86.496C4489.88,-35.104 4543.09,-206.104 4543.09,-407.504C4543.09,-646.904 4455.69,-787.504 4349.28,-787.504C4250.48,-787.504 4201.09,-631.704 4201.09,-472.104C4201.09,-282.104 4246.69,-107.304 4383.48,86.496Z" style="fill-opacity:0.1;"/>
                                </g>
                                <g transform="matrix(0.0469429,0,0,0.0449113,352.254,1139.7)">
                                    <path d="M0,917.739C0,948.233 21.782,977.276 84.223,977.276C120.526,977.276 177.158,943.877 165.541,927.904C146.664,939.521 120.526,945.329 91.483,945.329C58.085,945.329 20.33,933.712 20.33,924.999C20.33,903.218 69.702,872.723 113.265,872.723C258.477,872.723 322.37,980.18 479.199,980.18C585.203,980.18 662.166,887.244 662.166,814.639C662.166,743.485 633.123,702.826 556.161,702.826C522.762,702.826 470.486,715.895 426.923,743.485C426.923,760.91 455.965,734.772 532.927,734.772C622.959,734.772 640.384,803.022 640.384,849.489C640.384,865.463 612.794,881.436 577.943,881.436C476.295,881.436 377.551,750.745 236.695,750.745L281.711,784.144C357.221,694.113 370.29,564.874 370.29,422.567C370.29,347.057 367.386,268.642 367.386,188.776C367.386,127.787 381.907,92.936 412.401,92.936C432.731,92.936 460.321,107.457 460.321,180.063C460.321,286.068 387.715,358.674 387.715,476.295C387.715,553.257 422.566,630.22 506.789,630.22C515.502,630.22 521.31,628.768 521.31,624.411C463.226,609.89 439.992,573.587 439.992,531.476C439.992,412.402 609.889,360.126 609.889,225.079C609.889,120.526 506.789,45.016 380.455,76.963C376.099,66.798 374.646,58.085 374.646,49.373C374.646,24.687 384.811,2.905 393.524,-11.616C405.141,-33.398 426.923,-45.015 451.609,-52.276C413.854,-62.441 381.907,-30.494 370.29,-8.712C339.796,46.468 357.221,75.511 299.136,110.361C241.052,145.212 212.009,172.803 194.584,206.201C184.419,203.297 171.35,207.653 171.35,220.722C181.515,220.722 182.967,232.339 182.967,242.504C164.089,242.504 145.212,246.861 145.212,264.286C159.733,264.286 174.254,275.903 174.254,287.52C159.733,287.52 129.238,303.493 129.238,325.275C149.568,312.206 175.706,326.727 175.706,344.152C158.281,344.152 126.334,351.413 126.334,387.716C146.664,370.291 174.254,376.099 175.706,402.237C153.924,402.237 129.238,409.498 129.238,442.896C152.472,428.375 181.515,425.471 181.515,451.609C155.377,451.609 139.403,469.035 139.403,495.173C153.924,480.652 190.227,480.652 191.68,512.598C169.898,512.598 152.472,522.763 152.472,547.449C174.254,540.188 197.488,540.188 207.653,564.874C187.323,564.874 172.802,582.3 168.446,589.56C188.775,589.56 209.105,599.725 219.27,637.48C194.584,637.48 182.967,644.741 177.158,657.81C180.063,665.07 232.339,673.783 232.339,715.895C232.339,740.581 217.818,752.197 198.94,752.197C169.898,752.197 152.472,720.251 171.35,692.661C126.334,699.921 119.074,746.389 137.951,771.075C108.909,818.995 0,843.681 0,917.739M243.956,695.565C239.599,624.411 191.68,476.295 191.68,345.605C191.68,281.711 203.296,222.175 238.147,178.611C249.764,164.09 274.45,143.76 280.259,145.212C267.19,158.281 255.573,171.35 246.86,184.419C222.174,222.175 209.105,270.094 209.105,318.014C209.105,441.444 267.19,576.491 243.956,695.565M252.668,736.224C322.37,659.262 336.891,559.066 336.891,454.513C336.891,338.344 315.11,127.787 338.343,117.622C333.987,178.611 349.96,328.179 349.96,464.678C349.96,606.986 332.535,736.224 252.668,736.224" style="fill-opacity:0.1;fill-rule:nonzero;"/>
                                </g>
                                <g transform="matrix(0.0100651,0,0,0.00962953,380.999,1140.77)">
                                    <path d="M1094.75,3289.94C1094.75,2558.16 1653.67,2166.33 2143.46,2097.18C1745.87,1976.18 1521.14,1688.08 1521.14,1273.2C1521.14,702.756 1987.88,368.552 2604.42,368.552C3042.35,368.552 3370.79,552.939 3370.79,892.906C3370.79,1042.72 3261.3,1181.01 3082.68,1215.58C3042.35,858.331 2881.01,570.223 2610.19,570.223C2316.32,570.223 2137.7,841.044 2137.7,1232.87C2137.7,1757.22 2345.13,1993.47 2788.81,2039.56L2840.67,2212.43C2270.22,2206.66 1809.25,2569.68 1809.25,3272.66C1809.25,3946.82 2126.17,4315.6 2662.05,4315.6C3244.02,4315.6 3630.08,3871.91 3630.08,3232.32C3630.08,2915.41 3549.41,2546.63 3267.07,2546.63C3088.44,2546.63 2990.49,2702.21 2990.49,2915.41C2990.49,3088.27 3042.35,3255.37 3146.06,3359.09C3082.68,3399.42 3013.53,3410.95 2955.91,3410.95C2765.76,3410.95 2615.95,3289.94 2615.95,3019.12C2615.95,2633.06 2944.39,2414.1 3174.87,2229.71C3365.02,2068.38 3687.7,1860.94 3681.94,1567.07C3681.94,1405.73 3607.03,1319.3 3486.03,1278.96C3549.41,1175.25 3676.18,1129.15 3768.37,1129.15C3964.28,1129.15 4108.33,1267.44 4108.33,1503.69C4108.33,1762.99 3935.47,1941.61 3728.04,2091.42C3595.51,2189.38 3445.69,2270.05 3295.88,2391.05C3825.99,2350.72 4137.14,2713.73 4137.14,3232.32C4137.14,4062.06 3411.12,4517.27 2610.19,4517.27C1717.06,4517.27 1094.75,4154.26 1094.75,3289.94Z" style="fill-opacity:0.1;"/>
                                </g>
                            </g>
                        </g>
                        <g transform="matrix(1.61871,0,0,1.35134,-245.87,-387.409)">
                            <rect x="294.383" y="1090.25" width="146.827" height="140.473" style="fill:none;"/>
                            <clipPath id="_clip5">
                                <rect x="294.383" y="1090.25" width="146.827" height="140.473"/>
                            </clipPath>
                            <g clip-path="url(#_clip5)">
                                <g transform="matrix(0.0469429,0,0,0.0449113,284.892,1093.39)">
                                    <path d="M0,917.739C0,948.233 21.782,977.276 84.223,977.276C120.526,977.276 177.158,943.877 165.541,927.904C146.664,939.521 120.526,945.329 91.483,945.329C58.085,945.329 20.33,933.712 20.33,924.999C20.33,903.218 69.702,872.723 113.265,872.723C258.477,872.723 322.37,980.18 479.199,980.18C585.203,980.18 662.166,887.244 662.166,814.639C662.166,743.485 633.123,702.826 556.161,702.826C522.762,702.826 470.486,715.895 426.923,743.485C426.923,760.91 455.965,734.772 532.927,734.772C622.959,734.772 640.384,803.022 640.384,849.489C640.384,865.463 612.794,881.436 577.943,881.436C476.295,881.436 377.551,750.745 236.695,750.745L281.711,784.144C357.221,694.113 370.29,564.874 370.29,422.567C370.29,347.057 367.386,268.642 367.386,188.776C367.386,127.787 381.907,92.936 412.401,92.936C432.731,92.936 460.321,107.457 460.321,180.063C460.321,286.068 387.715,358.674 387.715,476.295C387.715,553.257 422.566,630.22 506.789,630.22C515.502,630.22 521.31,628.768 521.31,624.411C463.226,609.89 439.992,573.587 439.992,531.476C439.992,412.402 609.889,360.126 609.889,225.079C609.889,120.526 506.789,45.016 380.455,76.963C376.099,66.798 374.646,58.085 374.646,49.373C374.646,24.687 384.811,2.905 393.524,-11.616C405.141,-33.398 426.923,-45.015 451.609,-52.276C413.854,-62.441 381.907,-30.494 370.29,-8.712C339.796,46.468 357.221,75.511 299.136,110.361C241.052,145.212 212.009,172.803 194.584,206.201C184.419,203.297 171.35,207.653 171.35,220.722C181.515,220.722 182.967,232.339 182.967,242.504C164.089,242.504 145.212,246.861 145.212,264.286C159.733,264.286 174.254,275.903 174.254,287.52C159.733,287.52 129.238,303.493 129.238,325.275C149.568,312.206 175.706,326.727 175.706,344.152C158.281,344.152 126.334,351.413 126.334,387.716C146.664,370.291 174.254,376.099 175.706,402.237C153.924,402.237 129.238,409.498 129.238,442.896C152.472,428.375 181.515,425.471 181.515,451.609C155.377,451.609 139.403,469.035 139.403,495.173C153.924,480.652 190.227,480.652 191.68,512.598C169.898,512.598 152.472,522.763 152.472,547.449C174.254,540.188 197.488,540.188 207.653,564.874C187.323,564.874 172.802,582.3 168.446,589.56C188.775,589.56 209.105,599.725 219.27,637.48C194.584,637.48 182.967,644.741 177.158,657.81C180.063,665.07 232.339,673.783 232.339,715.895C232.339,740.581 217.818,752.197 198.94,752.197C169.898,752.197 152.472,720.251 171.35,692.661C126.334,699.921 119.074,746.389 137.951,771.075C108.909,818.995 0,843.681 0,917.739M243.956,695.565C239.599,624.411 191.68,476.295 191.68,345.605C191.68,281.711 203.296,222.175 238.147,178.611C249.764,164.09 274.45,143.76 280.259,145.212C267.19,158.281 255.573,171.35 246.86,184.419C222.174,222.175 209.105,270.094 209.105,318.014C209.105,441.444 267.19,576.491 243.956,695.565M252.668,736.224C322.37,659.262 336.891,559.066 336.891,454.513C336.891,338.344 315.11,127.787 338.343,117.622C333.987,178.611 349.96,328.179 349.96,464.678C349.96,606.986 332.535,736.224 252.668,736.224" style="fill-opacity:0.1;fill-rule:nonzero;"/>
                                </g>
                                <g transform="matrix(0.0100651,0,0,0.00962953,309.161,1093.21)">
                                    <path d="M1094.75,3289.94C1094.75,2558.16 1653.67,2166.33 2143.46,2097.18C1745.87,1976.18 1521.14,1688.08 1521.14,1273.2C1521.14,702.756 1987.88,368.552 2604.42,368.552C3042.35,368.552 3370.79,552.939 3370.79,892.906C3370.79,1042.72 3261.3,1181.01 3082.68,1215.58C3042.35,858.331 2881.01,570.223 2610.19,570.223C2316.32,570.223 2137.7,841.044 2137.7,1232.87C2137.7,1757.22 2345.13,1993.47 2788.81,2039.56L2840.67,2212.43C2270.22,2206.66 1809.25,2569.68 1809.25,3272.66C1809.25,3946.82 2126.17,4315.6 2662.05,4315.6C3244.02,4315.6 3630.08,3871.91 3630.08,3232.32C3630.08,2915.41 3549.41,2546.63 3267.07,2546.63C3088.44,2546.63 2990.49,2702.21 2990.49,2915.41C2990.49,3088.27 3042.35,3255.37 3146.06,3359.09C3082.68,3399.42 3013.53,3410.95 2955.91,3410.95C2765.76,3410.95 2615.95,3289.94 2615.95,3019.12C2615.95,2633.06 2944.39,2414.1 3174.87,2229.71C3365.02,2068.38 3687.7,1860.94 3681.94,1567.07C3681.94,1405.73 3607.03,1319.3 3486.03,1278.96C3549.41,1175.25 3676.18,1129.15 3768.37,1129.15C3964.28,1129.15 4108.33,1267.44 4108.33,1503.69C4108.33,1762.99 3935.47,1941.61 3728.04,2091.42C3595.51,2189.38 3445.69,2270.05 3295.88,2391.05C3825.99,2350.72 4137.14,2713.73 4137.14,3232.32C4137.14,4062.06 3411.12,4517.27 2610.19,4517.27C1717.06,4517.27 1094.75,4154.26 1094.75,3289.94Z" style="fill-opacity:0.1;"/>
                                </g>
                                <g transform="matrix(0.00977143,0,0,0.00934854,350.092,1088.06)">
                                    <path d="M1464.14,5067.38C1308.5,4932.21 1172.09,4750.21 1035.9,4562.13L1020.04,4540.22L1177.07,4358.37L1203.07,4384.29C1451.88,4632.34 1694.28,4728.61 1992.85,4728.61C2201.35,4728.61 2397.77,4656.8 2541.89,4508.13C2687.36,4358.06 2778.99,4130.43 2778.99,3821.88C2778.99,3519.63 2696.49,3271.06 2526.18,3121.14C2414.05,3022.44 2264.02,2967.41 2076.16,2967.41C1872.88,2967.41 1694.4,3051.56 1558.89,3157.63L1538.72,3173.42L1347.01,3035.88L1655.96,1052.08L2934.93,1052.08C3047.09,1052.08 3125.37,1046.9 3182.09,1034.97C3256.73,1019.28 3289.4,991.535 3315.63,946.955L3325.55,930.113L3522.5,930.113L3429.56,1338.29L3429.43,1338.79C3402.34,1443.12 3346.53,1601.83 3251.73,1681.6L3242.19,1689.63L1868.3,1689.63C1868.3,1689.63 1699.06,2773.85 1699.06,2773.85C1869.6,2668.26 2089.47,2602.85 2345.32,2602.85C2714.5,2602.85 3015.77,2723.21 3225.08,2933.07C3434.43,3142.96 3552.29,3442.93 3552.29,3804.45C3552.29,4697.28 2902.42,5203.53 2127.43,5203.53C1897.89,5203.53 1668.43,5167.45 1471.68,5072.35L1467.58,5070.37L1464.14,5067.38Z" style="fill-opacity:0.1;"/>
                                </g>
                                <g transform="matrix(0.00977143,0,0,0.00934854,276.5,1135.07)">
                                    <path d="M1464.14,5067.38C1308.5,4932.21 1172.09,4750.21 1035.9,4562.13L1020.04,4540.22L1177.07,4358.37L1203.07,4384.29C1451.88,4632.34 1694.28,4728.61 1992.85,4728.61C2201.35,4728.61 2397.77,4656.8 2541.89,4508.13C2687.36,4358.06 2778.99,4130.43 2778.99,3821.88C2778.99,3519.63 2696.49,3271.06 2526.18,3121.14C2414.05,3022.44 2264.02,2967.41 2076.16,2967.41C1872.88,2967.41 1694.4,3051.56 1558.89,3157.63L1538.72,3173.42L1347.01,3035.88L1655.96,1052.08L2934.93,1052.08C3047.09,1052.08 3125.37,1046.9 3182.09,1034.97C3256.73,1019.28 3289.4,991.535 3315.63,946.955L3325.55,930.113L3522.5,930.113L3429.56,1338.29L3429.43,1338.79C3402.34,1443.12 3346.53,1601.83 3251.73,1681.6L3242.19,1689.63L1868.3,1689.63C1868.3,1689.63 1699.06,2773.85 1699.06,2773.85C1869.6,2668.26 2089.47,2602.85 2345.32,2602.85C2714.5,2602.85 3015.77,2723.21 3225.08,2933.07C3434.43,3142.96 3552.29,3442.93 3552.29,3804.45C3552.29,4697.28 2902.42,5203.53 2127.43,5203.53C1897.89,5203.53 1668.43,5167.45 1471.68,5072.35L1467.58,5070.37L1464.14,5067.38Z" style="fill-opacity:0.1;"/>
                                </g>
                                <g transform="matrix(0.015241,0,0,0.0145814,263.88,1157.91)">
                                    <path d="M4892.68,1367.1C4717.89,1640.7 4520.28,1750.9 4315.08,1750.9C3771.68,1750.9 3555.08,1325.3 3555.08,941.496C3555.08,618.5 3684.28,417.1 3874.28,253.696C3756.48,52.296 3714.68,-141.504 3714.68,-339.104C3714.68,-745.704 3950.28,-969.904 4292.28,-969.904C4596.28,-969.904 4763.48,-749.504 4763.48,-407.504C4763.48,-92.104 4649.48,132.096 4516.48,257.496C4524.08,268.9 4535.48,280.296 4546.88,291.696C4668.48,424.696 4801.48,557.696 4942.08,686.9C4953.48,485.5 4934.48,173.896 4847.09,-190.904L5375.28,-54.104C5337.28,299.3 5223.28,622.3 5116.89,842.7C5230.89,949.1 5348.68,1047.9 5466.48,1139.1L5284.08,1769.9L4892.68,1367.1ZM4014.88,458.896C3999.68,515.9 3992.08,569.096 3992.08,626.1C3992.08,968.1 4292.28,1306.3 4508.89,1306.3C4592.48,1306.3 4676.09,1279.7 4744.48,1215.1L4144.08,599.496C4098.48,550.1 4052.88,504.5 4014.88,458.896ZM4383.48,86.496C4489.88,-35.104 4543.09,-206.104 4543.09,-407.504C4543.09,-646.904 4455.69,-787.504 4349.28,-787.504C4250.48,-787.504 4201.09,-631.704 4201.09,-472.104C4201.09,-282.104 4246.69,-107.304 4383.48,86.496Z" style="fill-opacity:0.1;"/>
                                </g>
                                <g transform="matrix(0.0469429,0,0,0.0449113,352.254,1139.7)">
                                    <path d="M0,917.739C0,948.233 21.782,977.276 84.223,977.276C120.526,977.276 177.158,943.877 165.541,927.904C146.664,939.521 120.526,945.329 91.483,945.329C58.085,945.329 20.33,933.712 20.33,924.999C20.33,903.218 69.702,872.723 113.265,872.723C258.477,872.723 322.37,980.18 479.199,980.18C585.203,980.18 662.166,887.244 662.166,814.639C662.166,743.485 633.123,702.826 556.161,702.826C522.762,702.826 470.486,715.895 426.923,743.485C426.923,760.91 455.965,734.772 532.927,734.772C622.959,734.772 640.384,803.022 640.384,849.489C640.384,865.463 612.794,881.436 577.943,881.436C476.295,881.436 377.551,750.745 236.695,750.745L281.711,784.144C357.221,694.113 370.29,564.874 370.29,422.567C370.29,347.057 367.386,268.642 367.386,188.776C367.386,127.787 381.907,92.936 412.401,92.936C432.731,92.936 460.321,107.457 460.321,180.063C460.321,286.068 387.715,358.674 387.715,476.295C387.715,553.257 422.566,630.22 506.789,630.22C515.502,630.22 521.31,628.768 521.31,624.411C463.226,609.89 439.992,573.587 439.992,531.476C439.992,412.402 609.889,360.126 609.889,225.079C609.889,120.526 506.789,45.016 380.455,76.963C376.099,66.798 374.646,58.085 374.646,49.373C374.646,24.687 384.811,2.905 393.524,-11.616C405.141,-33.398 426.923,-45.015 451.609,-52.276C413.854,-62.441 381.907,-30.494 370.29,-8.712C339.796,46.468 357.221,75.511 299.136,110.361C241.052,145.212 212.009,172.803 194.584,206.201C184.419,203.297 171.35,207.653 171.35,220.722C181.515,220.722 182.967,232.339 182.967,242.504C164.089,242.504 145.212,246.861 145.212,264.286C159.733,264.286 174.254,275.903 174.254,287.52C159.733,287.52 129.238,303.493 129.238,325.275C149.568,312.206 175.706,326.727 175.706,344.152C158.281,344.152 126.334,351.413 126.334,387.716C146.664,370.291 174.254,376.099 175.706,402.237C153.924,402.237 129.238,409.498 129.238,442.896C152.472,428.375 181.515,425.471 181.515,451.609C155.377,451.609 139.403,469.035 139.403,495.173C153.924,480.652 190.227,480.652 191.68,512.598C169.898,512.598 152.472,522.763 152.472,547.449C174.254,540.188 197.488,540.188 207.653,564.874C187.323,564.874 172.802,582.3 168.446,589.56C188.775,589.56 209.105,599.725 219.27,637.48C194.584,637.48 182.967,644.741 177.158,657.81C180.063,665.07 232.339,673.783 232.339,715.895C232.339,740.581 217.818,752.197 198.94,752.197C169.898,752.197 152.472,720.251 171.35,692.661C126.334,699.921 119.074,746.389 137.951,771.075C108.909,818.995 0,843.681 0,917.739M243.956,695.565C239.599,624.411 191.68,476.295 191.68,345.605C191.68,281.711 203.296,222.175 238.147,178.611C249.764,164.09 274.45,143.76 280.259,145.212C267.19,158.281 255.573,171.35 246.86,184.419C222.174,222.175 209.105,270.094 209.105,318.014C209.105,441.444 267.19,576.491 243.956,695.565M252.668,736.224C322.37,659.262 336.891,559.066 336.891,454.513C336.891,338.344 315.11,127.787 338.343,117.622C333.987,178.611 349.96,328.179 349.96,464.678C349.96,606.986 332.535,736.224 252.668,736.224" style="fill-opacity:0.1;fill-rule:nonzero;"/>
                                </g>
                            </g>
                        </g>
                    </g>
                </g>
            </g>
        </g>
    </g>
</svg>
