<?xml version="1.0" encoding="UTF-8"?><svg id="Layer_2" xmlns="http://www.w3.org/2000/svg" xmlns:xlink="http://www.w3.org/1999/xlink" viewBox="0 0 327 61.39"><defs><style>.cls-1{fill:none;}.cls-2{clip-path:url(#clippath);}</style><clipPath id="clippath"><rect class="cls-1" width="327" height="61.39"/></clipPath></defs><g id="Layer_1-2"><g class="cls-2"><g><path d="M.33,16.04c-.46,0-.46-.86,0-.86,3.29-.13,9.93-.66,17.03-1.32,.46-.07,.66,.2,.66,.66V50.57c0,5.39,2.3,7.89,5.79,7.89,.53,0,.53,.85,0,.85H.39c-.53,0-.53-.85,0-.85,3.49,0,5.79-2.5,5.79-7.89V22.29c0-5.33-.59-6.25-5.85-6.25Z"/><path d="M35.19,26.82c6.51,0,13.15,3.16,13.15,11.84h-16.11c-.07,1.51-.07,3.09-.07,4.93,0,10.06,1.71,14.86,6.71,14.86,3.62,0,9.01-1.91,9.01-12.3,0-.39,.72-.39,.72,.07,0,10.98-5,14.01-12.56,14.01-11.51,0-15.72-6.91-15.72-16.7,0-9.01,4.34-16.7,14.86-16.7Zm-.39,1.05c-1.45,0-2.24,3.09-2.5,9.73h4.47c0-6.58-.59-9.73-1.97-9.73Z"/><path d="M50.58,47.61V28.73h-2.76c-.66,0-.66-1.05,0-1.05h.66c10.79,0,12.1-3.55,13.28-9.01,.13-.53,.66-.46,.66,0v9.01h6.38c.66,0,.66,1.05,0,1.05h-6.38v21.11c0,5.59,.59,7.7,2.43,7.7,1.64,0,3.49-2.1,3.49-11.38,0-.59,.72-.53,.72,.07,0,10.98-1.71,14.01-8.75,14.01-5.79,0-9.73-3.81-9.73-12.63Z"/><path d="M70.83,47.61V28.73h-2.76c-.66,0-.66-1.05,0-1.05h.66c10.79,0,12.1-3.55,13.28-9.01,.13-.53,.66-.46,.66,0v9.01h6.38c.66,0,.66,1.05,0,1.05h-6.38v21.11c0,5.59,.59,7.7,2.43,7.7,1.64,0,3.49-2.1,3.49-11.38,0-.59,.72-.53,.72,.07,0,10.98-1.71,14.01-8.75,14.01-5.79,0-9.73-3.81-9.73-12.63Z"/><path d="M105.36,26.82c6.51,0,13.15,3.16,13.15,11.84h-16.11c-.07,1.51-.07,3.09-.07,4.93,0,10.06,1.71,14.86,6.71,14.86,3.62,0,9.01-1.91,9.01-12.3,0-.39,.72-.39,.72,.07,0,10.98-5,14.01-12.56,14.01-11.51,0-15.72-6.91-15.72-16.7,0-9.01,4.34-16.7,14.86-16.7Zm-.39,1.05c-1.45,0-2.24,3.09-2.5,9.73h4.47c0-6.58-.59-9.73-1.97-9.73Z"/><path d="M117.86,58.46c3.62,0,3.81-2.1,3.81-7.89v-15.39c0-5.79-.2-6.64-4.14-6.64-.26,0-.26-.66,0-.66,6.77,0,9.93-.26,13.81-1.25,.26-.07,.53,0,.33,.39-.26,.53-.59,1.58-.85,2.7,1.71-1.97,3.42-2.76,6.77-2.76,5.2,0,7.96,3.03,7.96,7.17s-2.63,6.38-6.05,6.38c-4.47,0-6.05-2.56-6.05-5.66,0-2.63,2.37-5.85,.07-5.85-1.18,0-2.17,1.05-2.96,2.24-.07,.53-.13,1.12-.13,1.58,0,7.37,3.09,7.69,3.09,11.44v6.31c0,6.12,.13,7.89,5,7.89,.59,0,.59,.85,0,.85h-20.65c-.59,0-.59-.85,0-.85Z"/></g><g><path d="M160.62,61.6c-2.61-2.12-6.57-4.52-9.05-5.87,1.7-1.7,1.98-3.82,1.98-9.75l-.07-17.67c0-4.81-.85-7-1.98-8.27,2.9-1.63,7.35-4.52,11.03-7.14l.21,.21c-.85,2.26-1.13,4.81-1.13,12.86l.07,27.14,4.45,2.19v.14c-1.48,1.41-3.75,3.96-5.51,6.15Z"/><path d="M189.46,61.53l-5.3-4.95-4.1,4.95c-3.32-1.41-8.76-4.17-12.23-5.16,1.13-1.41,1.91-4.17,1.91-7.42l-.14-14.28-3.89-2.33,6.01-6.15c3.39,2.69,4.95,3.89,7.14,5.44-.49,.78-1.06,2.76-1.06,4.74l-.14,15.9,6.22,2.47,.28-.21c.07-6.36,.28-12.93,.07-19.3-.64-.57-1.77-1.41-2.97-2.26l6.15-6.71,6.29,5.44c-.92,1.34-1.41,2.69-1.34,6.22l.14,15.12c1.06,.92,2.97,2.12,3.82,2.62v.14l-6.86,5.73Z"/><path d="M222.68,34.74l-.21,14.63c-.07,2.69,.5,3.39,.92,3.96-3.32,1.56-10.96,5.65-14.63,8.2-2.62-1.63-7.99-3.96-10.53-4.88v-.28c.85-.42,1.77-2.61,1.77-4.88,0-5.58,0-10.74-.14-16.33l-4.1-2.4v-.14c1.91-1.84,4.38-4.59,5.37-6.29,2.05,1.41,7.14,4.88,7.14,4.88,0,4.38,.07,10.53,.07,14.35,0,3.25-1.55,5.44-2.69,6.71l.07,.14c2.33,.42,6.15,1.77,8.91,3.11h.14l-.07-21.77c-.78-.57-1.2-1.06-2.12-1.62l5.16-5.8,6.22,4.38c-.5,.5-1.27,1.91-1.27,4.03Z"/><path d="M252.43,34.74l-.21,14.63c-.07,2.69,.5,3.39,.92,3.96-3.32,1.56-10.96,5.65-14.63,8.2-2.62-1.63-7.99-3.96-10.53-4.88v-.28c.85-.42,1.77-2.61,1.77-4.88,0-5.58,0-10.74-.14-16.33l-4.1-2.4v-.14c1.91-1.84,4.38-4.59,5.37-6.29,2.05,1.41,7.14,4.88,7.14,4.88,0,4.38,.07,10.53,.07,14.35,0,3.25-1.55,5.44-2.69,6.71l.07,.14c2.33,.42,6.15,1.77,8.91,3.11h.14l-.07-21.77c-.78-.57-1.2-1.06-2.12-1.62l5.16-5.8,6.22,4.38c-.49,.5-1.27,1.91-1.27,4.03Z"/><path d="M265.93,47.32c0,.85-.07,2.69-.07,3.68,3.39,1.55,7,2.76,11.17,4.03v.14c-1.7,1.7-4.95,4.95-6.08,6.43-4.38-2.54-9.05-4.88-13.85-6.71,.78-1.98,.85-5.09,.85-12.09,0-5.23-.42-8.06-1.13-9.82,3.75-1.27,9.68-4.31,14.06-7.14,1.7,2.97,5.37,9.05,7.7,12.23-4.17,2.9-10.53,7.42-12.65,9.26Zm.14-15.05l-.21,.14,.07,12.09,5.44-3.75c-1.63-2.76-4.03-6.78-5.3-8.48Z"/><path d="M294.84,42.66h-.21c-.21-3.46-1.06-7.7-2.19-9.82l-2.47,2.19c0,1.41-.21,4.17-.21,7.21l-.07,10.74c2.26,.92,4.88,1.7,7.42,2.4v.21l-6.01,6.36c-3.68-1.7-7.21-3.18-11.03-4.31,.99-1.41,1.34-3.53,1.41-7l.21-14.56c-2.05-1.55-4.31-3.46-5.02-3.82l6.08-5.94,6.71,6.43c1.98-1.55,8.48-6.43,8.48-6.43,2.05,2.76,3.32,6.5,3.75,11.1l-6.86,5.23Z"/><path d="M326.08,50.72c-3.67,2.62-10.74,8.06-13.78,10.96-3.18-1.98-6.86-3.39-11.17-4.17l5.94-7.07c3.82,1.06,7.07,2.26,10.53,4.38l.85-.64c0-5.58-.64-9.9-3.04-11.87l-9.54,5.37c-1.84-1.7-3.32-4.81-3.32-8.76,0-1.13,.21-2.12,.28-3.25,4.52-2.9,9.26-6.79,12.93-10.04,2.9,1.27,6.15,2.4,9.68,2.83l.07,.28-6.36,6.5c-2.33-.42-6.36-2.19-7.92-3.18l-1.2,.92c0,3.11,.71,6.71,1.91,8.34l9.4-5.44c2.69,2.4,4.95,5.37,4.95,11.87,0,.92-.07,2.05-.21,2.97Z"/></g></g></g></svg>